<svg width="1920" height="1367" viewBox="0 0 1920 1367" fill="none" xmlns="http://www.w3.org/2000/svg">
<g opacity="0.16">
<path d="M-67.7342 877.106C-133.788 735.454 -72.5029 567.074 69.15 501.02C210.803 434.967 379.182 496.252 445.236 637.904C511.29 779.557 450.005 947.937 308.352 1013.99C166.699 1080.04 -1.6804 1018.76 -67.7342 877.106Z" stroke="#B8B8B8"/>
<path d="M-15.5407 989.035C-81.4774 847.634 -20.0988 679.457 121.555 613.403C263.208 547.348 431.493 608.432 497.43 749.834C563.366 891.235 501.988 1059.41 360.334 1125.47C218.681 1191.52 50.396 1130.44 -15.5407 989.035Z" stroke="#B8B8B8"/>
<path d="M239.132 870.28C173.195 728.878 234.574 560.701 376.227 494.647C517.881 428.593 686.165 489.676 752.102 631.078C818.039 772.48 756.66 940.657 615.006 1006.71C473.353 1072.76 305.068 1011.68 239.132 870.28Z" stroke="#B8B8B8"/>
</g>
<g filter="url(#filter0_b_1_465)">
<ellipse cx="276" cy="811" rx="554" ry="556" fill="black" fill-opacity="0.01"/>
</g>
<path fill-rule="evenodd" clip-rule="evenodd" d="M1760.7 145.877C1762.29 145.392 1763.96 146.284 1764.45 147.869L1767.15 156.709C1767.64 158.294 1766.74 159.971 1765.16 160.455L1756.33 163.155C1754.74 163.64 1753.07 162.748 1752.58 161.164L1749.88 152.323C1749.4 150.738 1750.29 149.061 1751.87 148.577L1760.7 145.877Z" fill="#588FFF"/>
<path fill-rule="evenodd" clip-rule="evenodd" d="M1736.98 821.128C1737.35 819.513 1738.96 818.507 1740.58 818.88L1749.58 820.959C1751.2 821.332 1752.2 822.943 1751.83 824.557L1749.75 833.565C1749.38 835.179 1747.77 836.186 1746.15 835.813L1737.15 833.734C1735.53 833.361 1734.52 831.75 1734.9 830.136L1736.98 821.128Z" fill="#DE2461"/>
<path fill-rule="evenodd" clip-rule="evenodd" d="M1200.28 442.931C1199.4 441.526 1199.83 439.675 1201.23 438.797L1209.07 433.898C1210.48 433.02 1212.33 433.448 1213.21 434.853L1218.11 442.693C1218.98 444.098 1218.56 445.949 1217.15 446.827L1209.31 451.726C1207.91 452.604 1206.06 452.176 1205.18 450.771L1200.28 442.931Z" fill="#FBC50B"/>
<defs>
<filter id="filter0_b_1_465" x="-286.8" y="246.2" width="1125.6" height="1129.6" filterUnits="userSpaceOnUse" color-interpolation-filters="sRGB">
<feFlood flood-opacity="0" result="BackgroundImageFix"/>
<feGaussianBlur in="BackgroundImageFix" stdDeviation="4.4"/>
<feComposite in2="SourceAlpha" operator="in" result="effect1_backgroundBlur_1_465"/>
<feBlend mode="normal" in="SourceGraphic" in2="effect1_backgroundBlur_1_465" result="shape"/>
</filter>
</defs>
</svg>
