<svg width="260" height="48" viewBox="0 0 260 48" fill="none" xmlns="http://www.w3.org/2000/svg">
<circle cx="22" cy="24" r="22" fill="#DE2461"/>
<path d="M13.4251 13.0295C12.8046 13.1199 12.3156 13.3747 11.8389 13.8471C11.5554 14.1265 11.4526 14.2662 11.317 14.5456C10.9718 15.2481 11.0006 14.4264 11.0006 23.5022C11.0006 32.5779 10.9718 31.7562 11.317 32.4587C11.5595 32.9517 12.0485 33.4407 12.5416 33.6831C13.2443 34.0282 12.4224 33.9994 21.5 33.9994C30.5776 33.9994 29.7557 34.0282 30.4584 33.6831C30.7378 33.5475 30.8776 33.4407 31.1611 33.1613C31.4405 32.8778 31.5474 32.7381 31.683 32.4587C32.0282 31.7562 31.9994 32.5779 31.9994 23.5022C31.9994 14.4264 32.0282 15.2481 31.683 14.5456C31.4405 14.0526 30.9515 13.5637 30.4584 13.3213C29.7516 12.9761 30.6022 13.0049 21.6438 13.0008C17.2386 12.9967 13.5607 13.009 13.4251 13.0295ZM17.3208 17.0107C18.1427 17.2654 18.6974 18.1693 18.5454 19.0033C18.3399 20.1332 17.2057 20.7905 16.1332 20.4084C15.7592 20.2729 15.3524 19.9113 15.1675 19.5539C14.7113 18.6582 15.0689 17.5612 15.9606 17.1093C16.351 16.9121 16.8729 16.8751 17.3208 17.0107ZM25.3916 21.1644C26.912 21.3739 27.7503 22.3723 27.9764 24.2417C28.0174 24.595 28.0298 25.3633 28.0339 27.2738V29.8375L27.9147 29.9566L27.7955 30.0758H26.6203H25.445L25.3135 29.9566L25.1779 29.8375L25.1573 27.3149C25.1368 24.8867 25.1327 24.7881 25.0505 24.5416C24.8121 23.8432 24.4176 23.5432 23.7396 23.5432C23.0533 23.5432 22.5849 23.9171 22.3301 24.669L22.2191 25.0018L22.1986 27.4176L22.178 29.8375L22.0424 29.9566L21.9109 30.0758H20.7768H19.6426L19.5234 29.9566L19.4042 29.8375V25.6838V21.5301L19.5234 21.3986L19.6426 21.263L20.748 21.2507C21.7918 21.2425 21.8575 21.2466 21.9849 21.3246C22.1616 21.4315 22.1986 21.5465 22.1986 21.9697V22.3189L22.363 22.1094C22.9753 21.337 24.0971 20.9836 25.3916 21.1644ZM17.9043 21.3082C18.1837 21.4397 18.1714 21.2055 18.1714 25.6797C18.1714 29.176 18.1632 29.7266 18.1098 29.8293C17.9824 30.0717 17.966 30.0758 16.7866 30.0758C16.0387 30.0758 15.677 30.0593 15.6031 30.0265C15.3688 29.9197 15.3771 30.1045 15.3771 25.6591C15.3771 22.8448 15.3894 21.5383 15.4223 21.4849C15.4428 21.4397 15.525 21.3657 15.5949 21.3246C15.714 21.2507 15.8085 21.2425 16.7455 21.2425C17.592 21.2425 17.7934 21.2548 17.9043 21.3082Z" fill="white"/>
<circle cx="74" cy="24" r="22" fill="#DE2461"/>
<circle cx="126" cy="24" r="22" fill="#DE2461"/>
<circle cx="178" cy="24" r="22" fill="#DE2461"/>
<circle cx="230" cy="24" r="22" fill="#DE2461"/>
<path d="M73.6589 13.0147C73.592 13.0231 73.3536 13.0526 73.1361 13.0778C71.3166 13.284 69.5013 14.0496 67.9495 15.2569C67.4894 15.6144 66.5818 16.5272 66.2262 16.99C65.0676 18.4917 64.3649 20.1533 64.0722 22.0631C63.9759 22.6941 63.9759 24.3179 64.0722 24.9489C64.5406 28.0071 66.1342 30.5605 68.6187 32.2347C69.999 33.1644 71.417 33.6986 73.157 33.9468C73.7216 34.0267 75.2609 34.0141 75.8757 33.9258C77.4359 33.6944 78.9333 33.1181 80.2048 32.2641C82.7856 30.5268 84.3708 27.9524 84.8142 24.789C84.8853 24.2884 84.8811 22.7152 84.81 22.202C84.4419 19.5308 83.162 17.1582 81.1878 15.484C79.6945 14.2136 77.8332 13.3723 75.8966 13.0947C75.4449 13.0274 73.9433 12.9727 73.6589 13.0147ZM77.5112 17.1162C78.0967 17.1793 78.4983 17.2929 78.9709 17.5284C79.8158 17.9491 80.3345 18.5548 80.6482 19.4803C80.8657 20.1239 80.8741 20.2501 80.8741 23.506C80.8741 25.9711 80.8615 26.5894 80.8113 26.8755C80.506 28.6338 79.3516 29.6897 77.507 29.9C77.0051 29.9547 71.852 29.9547 71.3584 29.9C70.0074 29.7444 68.991 29.1176 68.4682 28.1206C68.2758 27.7505 68.1294 27.313 68.0541 26.8755C67.9621 26.3581 67.9621 20.6539 68.0541 20.1365C68.1712 19.4508 68.4473 18.8156 68.8237 18.3529C69.3549 17.7009 70.2918 17.234 71.2957 17.1162C71.7641 17.0615 77.0302 17.0615 77.5112 17.1162Z" fill="white"/>
<path d="M72.8224 18.294C71.1158 18.3234 71.0071 18.3361 70.434 18.6095C69.8987 18.8619 69.4511 19.455 69.2629 20.1617C69.1876 20.4352 69.1834 20.6539 69.1834 23.506C69.1834 26.358 69.1876 26.5768 69.2629 26.8502C69.4511 27.5569 69.8987 28.1501 70.434 28.4025C71.0071 28.6759 71.1116 28.6885 72.8558 28.718C73.7216 28.7306 75.1438 28.7306 76.0138 28.718C77.7538 28.6885 77.8583 28.6759 78.4314 28.4025C78.9667 28.1501 79.4143 27.5569 79.6025 26.8502C79.6778 26.5768 79.682 26.358 79.682 23.506C79.682 20.6539 79.6778 20.4352 79.6025 20.1617C79.4143 19.455 78.9667 18.8619 78.4314 18.6095C77.9043 18.3571 77.6994 18.3234 76.5868 18.3066C76.0347 18.2982 75.3111 18.2856 74.9765 18.2772C74.6418 18.273 73.6756 18.2814 72.8224 18.294ZM78.1302 19.4845C78.2055 19.5181 78.3226 19.6149 78.3895 19.7032C78.4899 19.8336 78.5108 19.9009 78.5108 20.1028C78.5108 20.2837 78.4899 20.3763 78.423 20.4646C78.1093 20.8895 77.5154 20.8811 77.2644 20.4436C77.1598 20.2627 77.1598 19.9388 77.2602 19.7621C77.4275 19.476 77.8165 19.3541 78.1302 19.4845ZM75.2149 20.1828C76.7625 20.5529 77.8207 21.9075 77.8207 23.506C77.8207 25.4158 76.3316 26.9133 74.4327 26.9133C72.5379 26.9133 71.0447 25.4116 71.0447 23.506C71.0447 21.9159 72.0946 20.5656 73.6296 20.1828C74.0772 20.0734 74.7631 20.0734 75.2149 20.1828Z" fill="white"/>
<path d="M73.7635 21.4154C73.0399 21.6636 72.5379 22.1894 72.3246 22.9129C72.287 23.0475 72.2577 23.2957 72.2577 23.506C72.2577 24.1202 72.4752 24.6502 72.8893 25.0625C73.3117 25.4832 73.8262 25.6935 74.4327 25.6935C75.0434 25.6935 75.5704 25.4747 75.9803 25.0583C76.3986 24.6334 76.6077 24.116 76.6077 23.506C76.6077 22.5007 75.9845 21.672 75.0225 21.3859C74.6795 21.285 74.1023 21.2976 73.7635 21.4154Z" fill="white"/>
<g clip-path="url(#clip0_1_515)">
<path d="M124.721 13.0288C123.199 13.1723 122.042 13.4963 120.779 14.1321C119.114 14.9647 117.572 16.3797 116.559 18.0039C115.824 19.177 115.291 20.6905 115.074 22.208C115.004 22.692 115.004 24.308 115.074 24.792C115.246 26.002 115.566 27.0602 116.066 28.0733C116.628 29.2217 117.182 29.9928 118.093 30.9075C118.999 31.8098 119.782 32.3717 120.886 32.9131C121.657 33.2905 122.153 33.475 122.937 33.6719C124.987 34.1887 127.046 34.0903 129.048 33.3807C129.659 33.1633 130.717 32.6342 131.263 32.2692C132.76 31.2725 133.998 29.8985 134.815 28.3194C135.557 26.892 135.926 25.4729 135.988 23.8487C136.049 22.1014 135.688 20.4362 134.909 18.8694C134.4 17.844 133.83 17.036 133.03 16.2116C132.145 15.2928 131.275 14.6612 130.114 14.087C128.9 13.4881 127.768 13.1641 126.423 13.0411C126.005 13.0041 125.057 12.9959 124.721 13.0288ZM128.281 18.812L128.289 19.8414L127.543 19.8579C126.406 19.8784 126.402 19.8825 126.402 21.0186V21.7364H127.366C127.895 21.7364 128.33 21.7405 128.33 21.7487C128.33 21.7569 128.285 22.1998 128.228 22.7371C128.17 23.2745 128.125 23.7502 128.125 23.7913C128.125 23.8651 128.084 23.8692 127.264 23.8692H126.402V26.9043V29.9395H125.131H123.859V26.9043V23.8692H123.265H122.67V22.8028V21.7364H123.261H123.851L123.872 20.7807C123.892 19.702 123.933 19.4723 124.208 18.9555C124.544 18.3116 125.164 17.9055 125.959 17.803C126.099 17.7825 126.681 17.7702 127.243 17.7743L128.269 17.7784L128.281 18.812Z" fill="white"/>
</g>
<g clip-path="url(#clip1_1_515)">
<path d="M176.495 13.0451C173.214 13.3855 170.339 15.1697 168.591 17.9506C166.114 21.8922 166.582 27.1258 169.715 30.5342C171.458 32.4291 173.616 33.557 176.208 33.9262C176.696 33.9959 178.308 33.9918 178.812 33.922C181.364 33.5693 183.521 32.4455 185.26 30.5588C186.692 29.0084 187.606 27.0232 187.926 24.792C187.996 24.308 187.996 22.692 187.926 22.208C187.684 20.5017 187.143 19.0539 186.245 17.7004C185.867 17.1262 185.486 16.6586 184.953 16.1213C183.316 14.4642 181.29 13.4429 178.956 13.0984C178.452 13.0246 176.995 12.9918 176.495 13.0451ZM176.606 19.5748C177.455 20.8135 178.16 21.8265 178.173 21.8306C178.185 21.8347 179.067 20.8217 180.137 19.583L182.077 17.3271L182.602 17.3148C182.91 17.3107 183.119 17.3189 183.111 17.3435C183.107 17.364 182.606 17.9506 182.008 18.6437C181.409 19.341 180.408 20.5058 179.785 21.2318L178.648 22.5484L180.826 25.723C182.024 27.4662 183.123 29.0658 183.271 29.2709L183.533 29.6523H181.733H179.932L178.3 27.2734C177.402 25.965 176.655 24.8945 176.643 24.8986C176.63 24.8986 175.704 25.965 174.588 27.2652L172.554 29.6318L172.012 29.6441L171.471 29.6564L173.825 26.9166L176.179 24.1808L176.048 23.9922C175.9 23.7912 171.655 17.606 171.532 17.4174L171.462 17.3066L173.259 17.3148L175.06 17.3271L176.606 19.5748Z" fill="white"/>
<path d="M176.676 23.5082L180.441 28.8935L181.245 28.9058C181.688 28.9099 182.053 28.9017 182.053 28.8853C182.053 28.8648 180.367 26.4449 178.308 23.5L174.563 18.1474L173.735 18.1351L172.91 18.1269L176.676 23.5082Z" fill="white"/>
</g>
<g clip-path="url(#clip2_1_515)">
<path d="M228.52 13.041C224.96 13.3855 221.777 15.5429 220.165 18.7093C219.595 19.8291 219.258 20.9078 219.074 22.208C218.992 22.7822 219.004 24.2752 219.098 24.915C219.258 26.0552 219.595 27.134 220.112 28.1717C221.133 30.2306 222.765 31.8631 224.828 32.8884C228.171 34.5537 232.125 34.324 235.242 32.2855C236.46 31.4898 237.617 30.3086 238.405 29.0535C238.708 28.5777 239.159 27.6508 239.364 27.0929C239.573 26.5269 239.815 25.5508 239.902 24.915C239.996 24.2711 240.008 22.7781 239.926 22.208C239.684 20.5058 239.143 19.0539 238.245 17.7004C237.867 17.1261 237.486 16.6586 236.953 16.1213C235.316 14.4683 233.282 13.4429 230.956 13.0984C230.456 13.0246 229.045 12.9918 228.52 13.041ZM233.483 19.6281C234.25 19.8537 234.816 20.4566 234.976 21.2236C235.062 21.642 235.062 25.358 234.976 25.7763C234.816 26.5433 234.246 27.1463 233.483 27.3718C233.286 27.4293 232.822 27.4375 229.5 27.4375C226.178 27.4375 225.714 27.4293 225.517 27.3718C224.75 27.1463 224.184 26.5433 224.024 25.7763C223.938 25.358 223.938 21.642 224.024 21.2236C224.184 20.473 224.689 19.9111 225.439 19.6568L225.706 19.5666L229.484 19.5625C232.822 19.5625 233.286 19.5707 233.483 19.6281Z" fill="white"/>
<path d="M228.023 23.4959C228.023 24.4229 228.032 25.1816 228.044 25.1816C228.085 25.1816 230.936 23.5205 230.936 23.5C230.931 23.4795 228.142 21.8512 228.064 21.8266C228.036 21.8184 228.023 22.409 228.023 23.4959Z" fill="white"/>
</g>
<defs>
<clipPath id="clip0_1_515">
<rect width="21" height="21" fill="white" transform="translate(115 13)"/>
</clipPath>
<clipPath id="clip1_1_515">
<rect width="21" height="21" fill="white" transform="translate(167 13)"/>
</clipPath>
<clipPath id="clip2_1_515">
<rect width="21" height="21" fill="white" transform="translate(219 13)"/>
</clipPath>
</defs>
</svg>
