<svg width="40" height="40" viewBox="0 0 40 40" fill="none" xmlns="http://www.w3.org/2000/svg">
<path d="M18.3972 0.0280685C18.2697 0.0440941 17.8156 0.100182 17.4013 0.148254C13.9356 0.540871 10.4779 1.99916 7.52215 4.29877C6.64578 4.97984 4.91693 6.71857 4.23973 7.59995C2.03286 10.4604 0.694393 13.6254 0.136699 17.2631C-0.046543 18.465 -0.046543 21.5579 0.136699 22.7597C1.02901 28.5849 4.06446 33.4485 8.79688 36.6375C11.426 38.4083 14.1268 39.4259 17.4411 39.8986C18.5167 40.0509 21.4486 40.0268 22.6197 39.8586C25.5914 39.4179 28.4436 38.3202 30.8656 36.6936C35.7813 33.3844 38.8008 28.4807 39.6453 22.4553C39.7807 21.5018 39.7728 18.5051 39.6373 17.5275C38.9362 12.4395 36.4983 7.92046 32.7379 4.73145C29.8936 2.31165 26.3483 0.709137 22.6595 0.180305C21.7991 0.0521049 18.9389 -0.0520592 18.3972 0.0280685ZM25.7348 7.84033C26.8502 7.96052 27.6151 8.17686 28.5153 8.62556C30.1247 9.42682 31.1126 10.5806 31.7101 12.3434C32.1244 13.5693 32.1403 13.8097 32.1403 20.0114C32.1403 24.7068 32.1164 25.8846 32.0208 26.4295C31.4392 29.7788 29.2403 31.7899 25.7269 32.1905C24.7708 32.2947 14.9554 32.2947 14.0153 32.1905C11.4419 31.8941 9.50595 30.7002 8.51007 28.8012C8.14358 28.0961 7.86474 27.2628 7.72133 26.4295C7.54606 25.444 7.54606 14.5789 7.72133 13.5934C7.94441 12.2873 8.47023 11.0774 9.18727 10.196C10.1991 8.95408 11.9837 8.06468 13.8958 7.84033C14.7881 7.73616 24.8186 7.73616 25.7348 7.84033Z" fill="#DE2461"/>
<path d="M16.8036 10.0838C13.5531 10.1399 13.3459 10.164 12.2545 10.6848C11.2347 11.1655 10.3822 12.2953 10.0237 13.6414C9.88028 14.1622 9.87231 14.5789 9.87231 20.0114C9.87231 25.4439 9.88028 25.8606 10.0237 26.3814C10.3822 27.7275 11.2347 28.8573 12.2545 29.3381C13.3459 29.8589 13.5451 29.8829 16.8674 29.939C18.5166 29.963 21.2254 29.963 22.8825 29.939C26.1968 29.8829 26.396 29.8589 27.4875 29.3381C28.5072 28.8573 29.3597 27.7275 29.7182 26.3814C29.8616 25.8606 29.8696 25.4439 29.8696 20.0114C29.8696 14.5789 29.8616 14.1622 29.7182 13.6414C29.3597 12.2953 28.5072 11.1655 27.4875 10.6848C26.4836 10.204 26.0932 10.1399 23.974 10.1079C22.9223 10.0919 21.544 10.0678 20.9067 10.0518C20.2693 10.0438 18.4289 10.0598 16.8036 10.0838ZM26.9138 12.3514C27.0572 12.4155 27.2803 12.5998 27.4078 12.7681C27.599 13.0164 27.6388 13.1446 27.6388 13.5292C27.6388 13.8738 27.599 14.0501 27.4715 14.2183C26.874 15.0276 25.7427 15.0116 25.2647 14.1783C25.0655 13.8337 25.0655 13.2168 25.2567 12.8802C25.5754 12.3354 26.3163 12.103 26.9138 12.3514ZM21.3608 13.6815C24.3086 14.3866 26.3243 16.9666 26.3243 20.0114C26.3243 23.6491 23.488 26.5016 19.871 26.5016C16.2619 26.5016 13.4177 23.6411 13.4177 20.0114C13.4177 16.9827 15.4174 14.4106 18.3413 13.6815C19.1938 13.4732 20.5004 13.4732 21.3608 13.6815Z" fill="#DE2461"/>
<path d="M18.5969 16.0289C17.2186 16.5017 16.2626 17.5033 15.8562 18.8814C15.7845 19.1378 15.7288 19.6106 15.7288 20.0112C15.7288 21.181 16.143 22.1906 16.9318 22.9758C17.7365 23.7771 18.7164 24.1777 19.8716 24.1777C21.0348 24.1777 22.0387 23.7611 22.8194 22.9678C23.6161 22.1586 24.0145 21.173 24.0145 20.0112C24.0145 18.0962 22.8274 16.5177 20.995 15.9729C20.3417 15.7806 19.2422 15.8046 18.5969 16.0289Z" fill="#DE2461"/>
</svg>
