<svg width="40" height="40" viewBox="0 0 40 40" fill="none" xmlns="http://www.w3.org/2000/svg">
<path d="M4.61852 0.0562782C3.43659 0.228443 2.50514 0.713638 1.59717 1.6136C1.05708 2.14575 0.861394 2.41183 0.603092 2.94398C-0.0544057 4.28218 0.000385771 2.71703 0.000385771 20.0041C0.000385771 37.2912 -0.0544057 35.726 0.603092 37.0642C1.06491 38.0033 1.99636 38.9346 2.93564 39.3963C4.27412 40.0537 2.70865 39.9989 19.9993 39.9989C37.2899 39.9989 35.7244 40.0537 37.0629 39.3963C37.5952 39.1381 37.8613 38.9346 38.4014 38.4024C38.9336 37.8625 39.1371 37.5964 39.3954 37.0642C40.0529 35.726 39.9981 37.2912 39.9981 20.0041C39.9981 2.71703 40.0529 4.28218 39.3954 2.94398C38.9336 2.00489 38.0022 1.07362 37.0629 0.611904C35.7166 -0.0454597 37.3368 0.00932312 20.2732 0.00149536C11.8823 -0.00632858 4.87683 0.0171471 4.61852 0.0562782ZM12.0389 7.63942C13.6043 8.12462 14.661 9.84628 14.3714 11.4349C13.98 13.587 11.8197 14.8391 9.77675 14.1113C9.06446 13.8531 8.28955 13.1644 7.93732 12.4836C7.06848 10.7775 7.74946 8.68807 9.448 7.82724C10.1916 7.45161 11.1857 7.38118 12.0389 7.63942ZM27.4118 15.5513C30.3079 15.9504 31.9047 17.852 32.3352 21.4127C32.4134 22.0858 32.4369 23.5492 32.4448 27.1881V32.0714L32.2178 32.2983L31.9908 32.5253H29.7521H27.5135L27.263 32.2983L27.0047 32.0714L26.9656 27.2664C26.9265 22.6414 26.9186 22.4536 26.7621 21.984C26.3081 20.6536 25.5567 20.0824 24.2652 20.0824C22.958 20.0824 22.0657 20.7945 21.5804 22.2266L21.3691 22.8605L21.3299 27.462L21.2908 32.0714L21.0325 32.2983L20.782 32.5253H18.6217H16.4613L16.2343 32.2983L16.0073 32.0714V24.1596V16.2477L16.2343 15.9973L16.4613 15.7391L18.5669 15.7156C20.555 15.6999 20.6802 15.7078 20.9229 15.8565C21.2595 16.0599 21.3299 16.279 21.3299 17.0851V17.7503L21.643 17.3512C22.8093 15.8799 24.9462 15.2069 27.4118 15.5513ZM13.1503 15.8252C13.6826 16.0756 13.6591 15.6295 13.6591 24.1517C13.6591 30.8115 13.6435 31.8601 13.5417 32.0558C13.2991 32.5175 13.2677 32.5253 11.0213 32.5253C9.59672 32.5253 8.90791 32.494 8.76702 32.4314C8.32086 32.2279 8.33651 32.5801 8.33651 24.1126C8.33651 18.752 8.36 16.2634 8.42262 16.1617C8.46175 16.0756 8.6183 15.9347 8.75136 15.8565C8.97836 15.7156 9.15839 15.6999 10.943 15.6999C12.5555 15.6999 12.939 15.7234 13.1503 15.8252Z" fill="#DE2461"/>
</svg>
