<svg width="45" height="30" viewBox="0 0 45 30" fill="none" xmlns="http://www.w3.org/2000/svg">
<path d="M11.7022 0.0527077C10.1789 0.242079 8.45055 0.969666 7.20066 1.93646C4.47629 4.04945 2.05463 8.02626 0.921913 12.2323C0.0528483 15.4516 -0.220565 19.2391 0.17979 22.4484C0.580146 25.6279 2.02533 27.9601 4.32982 29.1163C5.66759 29.7841 6.21442 29.9037 7.9916 29.9037C9.36844 29.8937 9.5735 29.8738 10.2863 29.6246C12.3857 28.907 14.5145 27.0033 16.36 24.1727C17.2193 22.8471 19.1137 19.5281 21.2815 15.5314C21.9064 14.3752 22.1212 14.0363 22.2091 14.136C22.2677 14.1958 22.9512 15.332 23.7324 16.6477C27.8043 23.5149 28.1558 24.073 29.562 25.8671C30.9583 27.6412 31.6712 28.319 32.9308 29.0964C35.2841 30.5416 38.8971 30.2226 41.0844 28.3588C44.1408 25.7575 45.127 19.5281 43.5256 12.8403C42.7249 9.48144 41.2211 6.14251 39.6783 4.28866C38.0085 2.27534 35.704 0.670658 33.8194 0.202211C32.9211 -0.0270271 30.9486 -0.0369949 30.0404 0.192245C28.6538 0.521154 27.0427 1.48795 25.6658 2.81355C24.9237 3.5212 23.0879 5.6641 22.8536 6.09268C22.7852 6.21228 22.7169 6.24218 22.668 6.18238C22.6192 6.12258 22.3263 5.7538 22.0138 5.36509C20.9202 3.96972 19.0844 2.35507 17.5513 1.44808C15.7253 0.351715 13.5087 -0.176533 11.7022 0.0527077ZM32.5988 3.88998C35.0205 4.46806 36.9539 6.50132 38.3503 9.93991C39.6294 13.0994 40.1665 15.9201 40.1665 19.4882C40.1665 21.2624 40.1372 21.7408 39.9907 22.269C39.4439 24.2325 38.321 25.2691 36.7488 25.2691C35.9481 25.2691 35.1669 24.8106 34.1124 23.7342C32.9894 22.588 32.0715 21.2923 30.431 18.5414C28.898 15.9799 27.8824 14.3254 26.0857 11.5047C25.3729 10.3785 24.787 9.4017 24.787 9.3419C24.787 9.12263 26.9255 6.33188 27.7067 5.53453C29.2495 3.96972 30.7728 3.4614 32.5988 3.88998ZM14.5145 5.00628C15.9108 5.61426 17.815 7.30864 19.1332 9.12263C20.139 10.4981 20.2073 10.0396 18.6059 12.7207C13.0009 22.0996 10.9015 24.7408 8.6849 25.1694C7.37642 25.4186 5.89218 24.5814 5.22817 23.2159C4.80829 22.3587 4.66182 21.6212 4.60323 20.0763C4.51535 17.6643 4.85711 15.2523 5.64806 12.8204C7.01513 8.60434 9.05596 5.79367 11.4288 4.87671C12.3272 4.52786 13.5185 4.5777 14.5145 5.00628Z" fill="#DE2461"/>
</svg>
