<svg width="40" height="40" viewBox="0 0 40 40" fill="none" xmlns="http://www.w3.org/2000/svg">
<path d="M18.483 0.0391731C15.5832 0.312748 13.3789 0.930241 10.9715 2.14178C7.79805 3.7285 4.85909 6.42514 2.92845 9.52043C1.52932 11.7559 0.513194 14.6401 0.0989263 17.5322C-0.033952 18.4545 -0.033952 21.5342 0.0989263 22.4565C0.427214 24.7623 1.03689 26.779 1.99049 28.7096C3.06133 30.8982 4.11654 32.3677 5.85177 34.1107C7.57919 35.8303 9.07212 36.9012 11.1747 37.9329C12.6442 38.652 13.59 39.0038 15.0829 39.379C18.9911 40.3638 22.9149 40.1762 26.7293 38.824C27.8939 38.4097 29.9106 37.4014 30.9501 36.7058C33.8031 34.8064 36.1637 32.1879 37.7191 29.1786C39.1339 26.4585 39.8373 23.754 39.9546 20.6588C40.0718 17.329 39.384 14.1555 37.8989 11.1697C36.9297 9.21559 35.8432 7.67577 34.319 6.10468C32.6307 4.35381 30.9736 3.15009 28.7616 2.0558C26.4479 0.914608 24.2906 0.297115 21.7268 0.0626221C20.9295 -0.00772476 19.124 -0.0233574 18.483 0.0391731ZM25.2676 11.0603L25.2833 13.0222L23.8607 13.0534C21.6956 13.0925 21.6877 13.1003 21.6877 15.2655V16.6333H23.5246C24.5329 16.6333 25.3614 16.6411 25.3614 16.6568C25.3614 16.6724 25.2754 17.5166 25.166 18.5405C25.0566 19.5645 24.9706 20.4712 24.9706 20.5493C24.9706 20.69 24.8924 20.6978 23.3292 20.6978H21.6877V26.4819V32.2661H19.2647H16.8416V26.4819V20.6978H15.7082H14.5748V18.6656V16.6333H15.7004H16.826L16.865 14.8121C16.9041 12.7564 16.9823 12.3187 17.506 11.3338C18.1469 10.1067 19.3272 9.33283 20.8436 9.13742C21.1093 9.09834 22.2192 9.07489 23.2901 9.08271L25.2442 9.09053L25.2676 11.0603Z" fill="#DE2461"/>
</svg>
